<mxfile host="app.diagrams.net" modified="2021-04-13T13:58:36.050Z" agent="5.0 (Windows NT 10.0; WOW64) AppleWebKit/537.36 (KHTML, like Gecko) Chrome/70.0.3538.25 Safari/537.36 Core/1.70.3775.400 QQBrowser/10.6.4209.400" etag="kUA3Dw3xjOBBwAljp0Eo" version="14.5.10" type="github">
  <diagram id="tDLC_Ir46GUdF1yW0QTe" name="Page-1">
    <mxGraphModel dx="2342" dy="1296" grid="1" gridSize="10" guides="1" tooltips="1" connect="1" arrows="1" fold="1" page="1" pageScale="1" pageWidth="3300" pageHeight="4681" math="0" shadow="0">
      <root>
        <mxCell id="0" />
        <mxCell id="1" parent="0" />
        <mxCell id="SOC2u97oLlGBoNLmG89c-3" value="" style="edgeStyle=orthogonalEdgeStyle;rounded=0;orthogonalLoop=1;jettySize=auto;html=1;" edge="1" parent="1" source="SOC2u97oLlGBoNLmG89c-1" target="SOC2u97oLlGBoNLmG89c-2">
          <mxGeometry relative="1" as="geometry" />
        </mxCell>
        <mxCell id="SOC2u97oLlGBoNLmG89c-1" value="&lt;font style=&quot;font-size: 18px&quot;&gt;归一化后图像数据&lt;/font&gt;" style="rounded=1;whiteSpace=wrap;html=1;" vertex="1" parent="1">
          <mxGeometry x="170" y="70" width="120" height="60" as="geometry" />
        </mxCell>
        <mxCell id="SOC2u97oLlGBoNLmG89c-5" value="" style="edgeStyle=orthogonalEdgeStyle;rounded=0;orthogonalLoop=1;jettySize=auto;html=1;" edge="1" parent="1" source="SOC2u97oLlGBoNLmG89c-2" target="SOC2u97oLlGBoNLmG89c-4">
          <mxGeometry relative="1" as="geometry" />
        </mxCell>
        <mxCell id="SOC2u97oLlGBoNLmG89c-16" value="" style="edgeStyle=orthogonalEdgeStyle;rounded=0;orthogonalLoop=1;jettySize=auto;html=1;" edge="1" parent="1" source="SOC2u97oLlGBoNLmG89c-2" target="SOC2u97oLlGBoNLmG89c-15">
          <mxGeometry relative="1" as="geometry" />
        </mxCell>
        <mxCell id="SOC2u97oLlGBoNLmG89c-2" value="&lt;font style=&quot;font-size: 18px&quot;&gt;多个残差块&lt;/font&gt;" style="whiteSpace=wrap;html=1;rounded=1;" vertex="1" parent="1">
          <mxGeometry x="170" y="210" width="120" height="60" as="geometry" />
        </mxCell>
        <mxCell id="SOC2u97oLlGBoNLmG89c-7" value="" style="edgeStyle=orthogonalEdgeStyle;rounded=0;orthogonalLoop=1;jettySize=auto;html=1;" edge="1" parent="1" source="SOC2u97oLlGBoNLmG89c-4" target="SOC2u97oLlGBoNLmG89c-6">
          <mxGeometry relative="1" as="geometry" />
        </mxCell>
        <mxCell id="SOC2u97oLlGBoNLmG89c-18" value="" style="edgeStyle=orthogonalEdgeStyle;rounded=0;orthogonalLoop=1;jettySize=auto;html=1;" edge="1" parent="1" source="SOC2u97oLlGBoNLmG89c-4" target="SOC2u97oLlGBoNLmG89c-17">
          <mxGeometry relative="1" as="geometry" />
        </mxCell>
        <mxCell id="SOC2u97oLlGBoNLmG89c-4" value="&lt;span style=&quot;font-size: 18px&quot;&gt;多个残差块&lt;/span&gt;" style="whiteSpace=wrap;html=1;rounded=1;" vertex="1" parent="1">
          <mxGeometry x="170" y="350" width="120" height="60" as="geometry" />
        </mxCell>
        <mxCell id="SOC2u97oLlGBoNLmG89c-9" value="" style="edgeStyle=orthogonalEdgeStyle;rounded=0;orthogonalLoop=1;jettySize=auto;html=1;" edge="1" parent="1" source="SOC2u97oLlGBoNLmG89c-6" target="SOC2u97oLlGBoNLmG89c-8">
          <mxGeometry relative="1" as="geometry" />
        </mxCell>
        <mxCell id="SOC2u97oLlGBoNLmG89c-20" value="" style="edgeStyle=orthogonalEdgeStyle;rounded=0;orthogonalLoop=1;jettySize=auto;html=1;" edge="1" parent="1" source="SOC2u97oLlGBoNLmG89c-6" target="SOC2u97oLlGBoNLmG89c-19">
          <mxGeometry relative="1" as="geometry" />
        </mxCell>
        <mxCell id="SOC2u97oLlGBoNLmG89c-6" value="&lt;span style=&quot;font-size: 18px&quot;&gt;多个残差块&lt;/span&gt;" style="whiteSpace=wrap;html=1;rounded=1;" vertex="1" parent="1">
          <mxGeometry x="170" y="490" width="120" height="60" as="geometry" />
        </mxCell>
        <mxCell id="SOC2u97oLlGBoNLmG89c-8" value="&lt;span style=&quot;font-size: 18px&quot;&gt;多个残差块&lt;/span&gt;" style="whiteSpace=wrap;html=1;rounded=1;" vertex="1" parent="1">
          <mxGeometry x="170" y="630" width="120" height="60" as="geometry" />
        </mxCell>
        <mxCell id="SOC2u97oLlGBoNLmG89c-22" value="" style="edgeStyle=orthogonalEdgeStyle;rounded=0;orthogonalLoop=1;jettySize=auto;html=1;" edge="1" parent="1" source="SOC2u97oLlGBoNLmG89c-15" target="SOC2u97oLlGBoNLmG89c-21">
          <mxGeometry relative="1" as="geometry" />
        </mxCell>
        <mxCell id="SOC2u97oLlGBoNLmG89c-15" value="&lt;font style=&quot;font-size: 18px&quot;&gt;3*3*512&lt;br&gt;卷积层&lt;/font&gt;" style="whiteSpace=wrap;html=1;rounded=1;" vertex="1" parent="1">
          <mxGeometry x="370" y="210" width="120" height="60" as="geometry" />
        </mxCell>
        <mxCell id="SOC2u97oLlGBoNLmG89c-28" value="" style="edgeStyle=orthogonalEdgeStyle;rounded=0;orthogonalLoop=1;jettySize=auto;html=1;" edge="1" parent="1" source="SOC2u97oLlGBoNLmG89c-17" target="SOC2u97oLlGBoNLmG89c-27">
          <mxGeometry relative="1" as="geometry" />
        </mxCell>
        <mxCell id="SOC2u97oLlGBoNLmG89c-17" value="&lt;span style=&quot;font-size: 18px&quot;&gt;3*3*512&lt;/span&gt;&lt;br style=&quot;font-size: 18px&quot;&gt;&lt;span style=&quot;font-size: 18px&quot;&gt;卷积层&lt;/span&gt;" style="whiteSpace=wrap;html=1;rounded=1;" vertex="1" parent="1">
          <mxGeometry x="370" y="350" width="120" height="60" as="geometry" />
        </mxCell>
        <mxCell id="SOC2u97oLlGBoNLmG89c-34" value="" style="edgeStyle=orthogonalEdgeStyle;rounded=0;orthogonalLoop=1;jettySize=auto;html=1;" edge="1" parent="1" source="SOC2u97oLlGBoNLmG89c-19" target="SOC2u97oLlGBoNLmG89c-33">
          <mxGeometry relative="1" as="geometry" />
        </mxCell>
        <mxCell id="SOC2u97oLlGBoNLmG89c-19" value="&lt;span style=&quot;font-size: 18px&quot;&gt;3*3*512&lt;/span&gt;&lt;br style=&quot;font-size: 18px&quot;&gt;&lt;span style=&quot;font-size: 18px&quot;&gt;卷积层&lt;/span&gt;" style="whiteSpace=wrap;html=1;rounded=1;" vertex="1" parent="1">
          <mxGeometry x="370" y="490" width="120" height="60" as="geometry" />
        </mxCell>
        <mxCell id="SOC2u97oLlGBoNLmG89c-24" value="" style="edgeStyle=orthogonalEdgeStyle;rounded=0;orthogonalLoop=1;jettySize=auto;html=1;" edge="1" parent="1" source="SOC2u97oLlGBoNLmG89c-21" target="SOC2u97oLlGBoNLmG89c-23">
          <mxGeometry relative="1" as="geometry" />
        </mxCell>
        <mxCell id="SOC2u97oLlGBoNLmG89c-21" value="&lt;font style=&quot;font-size: 22px&quot;&gt;+&lt;/font&gt;" style="rhombus;whiteSpace=wrap;html=1;rounded=1;" vertex="1" parent="1">
          <mxGeometry x="590" y="200" width="80" height="80" as="geometry" />
        </mxCell>
        <mxCell id="SOC2u97oLlGBoNLmG89c-26" value="" style="edgeStyle=orthogonalEdgeStyle;rounded=0;orthogonalLoop=1;jettySize=auto;html=1;" edge="1" parent="1" source="SOC2u97oLlGBoNLmG89c-23" target="SOC2u97oLlGBoNLmG89c-25">
          <mxGeometry relative="1" as="geometry" />
        </mxCell>
        <mxCell id="SOC2u97oLlGBoNLmG89c-23" value="&lt;font style=&quot;font-size: 18px&quot;&gt;多个卷积层&lt;/font&gt;" style="whiteSpace=wrap;html=1;rounded=1;" vertex="1" parent="1">
          <mxGeometry x="730" y="210" width="120" height="60" as="geometry" />
        </mxCell>
        <mxCell id="SOC2u97oLlGBoNLmG89c-25" value="&lt;span style=&quot;font-size: 18px&quot;&gt;网络输出&lt;/span&gt;" style="whiteSpace=wrap;html=1;rounded=1;" vertex="1" parent="1">
          <mxGeometry x="930" y="210" width="120" height="60" as="geometry" />
        </mxCell>
        <mxCell id="SOC2u97oLlGBoNLmG89c-30" value="" style="edgeStyle=orthogonalEdgeStyle;rounded=0;orthogonalLoop=1;jettySize=auto;html=1;" edge="1" parent="1" source="SOC2u97oLlGBoNLmG89c-27" target="SOC2u97oLlGBoNLmG89c-29">
          <mxGeometry relative="1" as="geometry" />
        </mxCell>
        <mxCell id="SOC2u97oLlGBoNLmG89c-45" value="" style="edgeStyle=orthogonalEdgeStyle;rounded=0;orthogonalLoop=1;jettySize=auto;html=1;" edge="1" parent="1" source="SOC2u97oLlGBoNLmG89c-27" target="SOC2u97oLlGBoNLmG89c-17">
          <mxGeometry relative="1" as="geometry" />
        </mxCell>
        <mxCell id="SOC2u97oLlGBoNLmG89c-27" value="&lt;font style=&quot;font-size: 22px&quot;&gt;+&lt;/font&gt;" style="rhombus;whiteSpace=wrap;html=1;rounded=1;" vertex="1" parent="1">
          <mxGeometry x="590" y="340" width="80" height="80" as="geometry" />
        </mxCell>
        <mxCell id="SOC2u97oLlGBoNLmG89c-32" value="" style="edgeStyle=orthogonalEdgeStyle;rounded=0;orthogonalLoop=1;jettySize=auto;html=1;" edge="1" parent="1" source="SOC2u97oLlGBoNLmG89c-29" target="SOC2u97oLlGBoNLmG89c-31">
          <mxGeometry relative="1" as="geometry" />
        </mxCell>
        <mxCell id="SOC2u97oLlGBoNLmG89c-29" value="&lt;span style=&quot;font-size: 18px&quot;&gt;多个卷积层&lt;/span&gt;" style="whiteSpace=wrap;html=1;rounded=1;" vertex="1" parent="1">
          <mxGeometry x="730" y="350" width="120" height="60" as="geometry" />
        </mxCell>
        <mxCell id="SOC2u97oLlGBoNLmG89c-31" value="&lt;span style=&quot;font-size: 18px&quot;&gt;网络输出&lt;/span&gt;" style="whiteSpace=wrap;html=1;rounded=1;" vertex="1" parent="1">
          <mxGeometry x="930" y="350" width="120" height="60" as="geometry" />
        </mxCell>
        <mxCell id="SOC2u97oLlGBoNLmG89c-36" value="" style="edgeStyle=orthogonalEdgeStyle;rounded=0;orthogonalLoop=1;jettySize=auto;html=1;" edge="1" parent="1" source="SOC2u97oLlGBoNLmG89c-33" target="SOC2u97oLlGBoNLmG89c-35">
          <mxGeometry relative="1" as="geometry" />
        </mxCell>
        <mxCell id="SOC2u97oLlGBoNLmG89c-33" value="&lt;span style=&quot;font-size: 18px&quot;&gt;多个卷积层&lt;/span&gt;" style="whiteSpace=wrap;html=1;rounded=1;" vertex="1" parent="1">
          <mxGeometry x="730" y="490" width="120" height="60" as="geometry" />
        </mxCell>
        <mxCell id="SOC2u97oLlGBoNLmG89c-35" value="&lt;span&gt;&lt;font style=&quot;font-size: 18px&quot;&gt;网络输出&lt;/font&gt;&lt;/span&gt;" style="whiteSpace=wrap;html=1;rounded=1;" vertex="1" parent="1">
          <mxGeometry x="930" y="490" width="120" height="60" as="geometry" />
        </mxCell>
        <mxCell id="SOC2u97oLlGBoNLmG89c-37" value="&lt;font style=&quot;font-size: 22px&quot;&gt;特征提取器&lt;/font&gt;" style="text;html=1;align=center;verticalAlign=middle;resizable=0;points=[];autosize=1;strokeColor=none;" vertex="1" parent="1">
          <mxGeometry x="170" y="720" width="130" height="20" as="geometry" />
        </mxCell>
        <mxCell id="SOC2u97oLlGBoNLmG89c-39" value="3*3*512&lt;br&gt;反卷积" style="whiteSpace=wrap;html=1;" vertex="1" parent="1">
          <mxGeometry x="595" y="300" width="70" height="30" as="geometry" />
        </mxCell>
        <mxCell id="SOC2u97oLlGBoNLmG89c-40" value="3*3*512&lt;br&gt;反卷积" style="whiteSpace=wrap;html=1;" vertex="1" parent="1">
          <mxGeometry x="595" y="450" width="70" height="30" as="geometry" />
        </mxCell>
        <mxCell id="SOC2u97oLlGBoNLmG89c-41" value="" style="endArrow=classic;html=1;entryX=0.5;entryY=1;entryDx=0;entryDy=0;exitX=0.5;exitY=0;exitDx=0;exitDy=0;" edge="1" parent="1" source="SOC2u97oLlGBoNLmG89c-40" target="SOC2u97oLlGBoNLmG89c-27">
          <mxGeometry width="50" height="50" relative="1" as="geometry">
            <mxPoint x="650" y="450" as="sourcePoint" />
            <mxPoint x="700" y="400" as="targetPoint" />
          </mxGeometry>
        </mxCell>
        <mxCell id="SOC2u97oLlGBoNLmG89c-42" value="" style="endArrow=classic;html=1;entryX=0.5;entryY=1;entryDx=0;entryDy=0;" edge="1" parent="1" target="SOC2u97oLlGBoNLmG89c-40">
          <mxGeometry width="50" height="50" relative="1" as="geometry">
            <mxPoint x="630" y="520" as="sourcePoint" />
            <mxPoint x="700" y="400" as="targetPoint" />
          </mxGeometry>
        </mxCell>
        <mxCell id="SOC2u97oLlGBoNLmG89c-43" value="" style="endArrow=classic;html=1;" edge="1" parent="1" source="SOC2u97oLlGBoNLmG89c-27">
          <mxGeometry width="50" height="50" relative="1" as="geometry">
            <mxPoint x="580" y="380" as="sourcePoint" />
            <mxPoint x="630" y="330" as="targetPoint" />
          </mxGeometry>
        </mxCell>
        <mxCell id="SOC2u97oLlGBoNLmG89c-44" value="" style="endArrow=classic;html=1;entryX=0.5;entryY=1;entryDx=0;entryDy=0;" edge="1" parent="1" target="SOC2u97oLlGBoNLmG89c-21">
          <mxGeometry width="50" height="50" relative="1" as="geometry">
            <mxPoint x="630" y="300" as="sourcePoint" />
            <mxPoint x="700" y="400" as="targetPoint" />
          </mxGeometry>
        </mxCell>
        <mxCell id="SOC2u97oLlGBoNLmG89c-47" value="" style="rounded=1;arcSize=10;dashed=1;strokeColor=#000000;fillColor=none;gradientColor=none;dashPattern=8 3 1 3;strokeWidth=2;" vertex="1" parent="1">
          <mxGeometry x="350" y="180" width="710" height="430" as="geometry" />
        </mxCell>
        <mxCell id="SOC2u97oLlGBoNLmG89c-48" value="&lt;font style=&quot;font-size: 22px&quot;&gt;目标检测头&lt;/font&gt;" style="text;html=1;align=center;verticalAlign=middle;resizable=0;points=[];autosize=1;strokeColor=none;" vertex="1" parent="1">
          <mxGeometry x="640" y="570" width="130" height="20" as="geometry" />
        </mxCell>
        <mxCell id="SOC2u97oLlGBoNLmG89c-49" value="" style="rounded=1;arcSize=10;dashed=1;strokeColor=#000000;fillColor=none;gradientColor=none;dashPattern=8 3 1 3;strokeWidth=2;" vertex="1" parent="1">
          <mxGeometry x="130" y="10" width="200" height="750" as="geometry" />
        </mxCell>
        <mxCell id="SOC2u97oLlGBoNLmG89c-50" value="&lt;font style=&quot;font-size: 18px&quot;&gt;PServer&lt;/font&gt;" style="rounded=1;whiteSpace=wrap;html=1;" vertex="1" parent="1">
          <mxGeometry x="1490" y="355" width="120" height="60" as="geometry" />
        </mxCell>
        <mxCell id="SOC2u97oLlGBoNLmG89c-52" value="&lt;font style=&quot;font-size: 18px&quot;&gt;PServer&lt;/font&gt;" style="rounded=1;whiteSpace=wrap;html=1;" vertex="1" parent="1">
          <mxGeometry x="1730" y="355" width="120" height="60" as="geometry" />
        </mxCell>
        <mxCell id="SOC2u97oLlGBoNLmG89c-53" value="&lt;font style=&quot;font-size: 18px&quot;&gt;PServer&lt;/font&gt;" style="rounded=1;whiteSpace=wrap;html=1;" vertex="1" parent="1">
          <mxGeometry x="1230" y="355" width="120" height="60" as="geometry" />
        </mxCell>
        <mxCell id="SOC2u97oLlGBoNLmG89c-54" value="&lt;span style=&quot;font-size: 18px&quot;&gt;Trainer&lt;/span&gt;" style="rounded=1;whiteSpace=wrap;html=1;" vertex="1" parent="1">
          <mxGeometry x="1240" y="620" width="120" height="60" as="geometry" />
        </mxCell>
        <mxCell id="SOC2u97oLlGBoNLmG89c-55" value="&lt;span style=&quot;font-size: 18px&quot;&gt;Trainer&lt;/span&gt;" style="rounded=1;whiteSpace=wrap;html=1;" vertex="1" parent="1">
          <mxGeometry x="1730" y="620" width="120" height="60" as="geometry" />
        </mxCell>
        <mxCell id="SOC2u97oLlGBoNLmG89c-56" value="&lt;span style=&quot;font-size: 18px&quot;&gt;Trainer&lt;/span&gt;" style="rounded=1;whiteSpace=wrap;html=1;" vertex="1" parent="1">
          <mxGeometry x="1490" y="620" width="120" height="60" as="geometry" />
        </mxCell>
        <mxCell id="SOC2u97oLlGBoNLmG89c-57" value="&lt;font style=&quot;font-size: 22px&quot;&gt;data&lt;/font&gt;" style="shape=cylinder3;whiteSpace=wrap;html=1;boundedLbl=1;backgroundOutline=1;size=15;" vertex="1" parent="1">
          <mxGeometry x="1465" y="830" width="170" height="80" as="geometry" />
        </mxCell>
        <mxCell id="SOC2u97oLlGBoNLmG89c-58" value="" style="endArrow=classic;html=1;exitX=0.5;exitY=0;exitDx=0;exitDy=0;" edge="1" parent="1" source="SOC2u97oLlGBoNLmG89c-54">
          <mxGeometry width="50" height="50" relative="1" as="geometry">
            <mxPoint x="1540" y="640" as="sourcePoint" />
            <mxPoint x="1780" y="420" as="targetPoint" />
          </mxGeometry>
        </mxCell>
        <mxCell id="SOC2u97oLlGBoNLmG89c-59" value="" style="endArrow=classic;html=1;entryX=0.5;entryY=1;entryDx=0;entryDy=0;" edge="1" parent="1" target="SOC2u97oLlGBoNLmG89c-53">
          <mxGeometry width="50" height="50" relative="1" as="geometry">
            <mxPoint x="1790" y="620" as="sourcePoint" />
            <mxPoint x="1590" y="590" as="targetPoint" />
          </mxGeometry>
        </mxCell>
        <mxCell id="SOC2u97oLlGBoNLmG89c-60" value="" style="endArrow=classic;html=1;" edge="1" parent="1" target="SOC2u97oLlGBoNLmG89c-50">
          <mxGeometry width="50" height="50" relative="1" as="geometry">
            <mxPoint x="1549" y="620" as="sourcePoint" />
            <mxPoint x="1590" y="590" as="targetPoint" />
          </mxGeometry>
        </mxCell>
        <mxCell id="SOC2u97oLlGBoNLmG89c-61" value="" style="endArrow=classic;html=1;exitX=0.5;exitY=0;exitDx=0;exitDy=0;" edge="1" parent="1" source="SOC2u97oLlGBoNLmG89c-55">
          <mxGeometry width="50" height="50" relative="1" as="geometry">
            <mxPoint x="1740" y="465" as="sourcePoint" />
            <mxPoint x="1790" y="415" as="targetPoint" />
          </mxGeometry>
        </mxCell>
        <mxCell id="SOC2u97oLlGBoNLmG89c-62" value="" style="endArrow=classic;html=1;entryX=0.5;entryY=1;entryDx=0;entryDy=0;exitX=0.5;exitY=0;exitDx=0;exitDy=0;" edge="1" parent="1" source="SOC2u97oLlGBoNLmG89c-56" target="SOC2u97oLlGBoNLmG89c-52">
          <mxGeometry width="50" height="50" relative="1" as="geometry">
            <mxPoint x="1540" y="640" as="sourcePoint" />
            <mxPoint x="1590" y="590" as="targetPoint" />
          </mxGeometry>
        </mxCell>
        <mxCell id="SOC2u97oLlGBoNLmG89c-63" value="" style="endArrow=classic;html=1;exitX=0.5;exitY=0;exitDx=0;exitDy=0;entryX=0.5;entryY=1;entryDx=0;entryDy=0;" edge="1" parent="1" source="SOC2u97oLlGBoNLmG89c-54" target="SOC2u97oLlGBoNLmG89c-50">
          <mxGeometry width="50" height="50" relative="1" as="geometry">
            <mxPoint x="1540" y="640" as="sourcePoint" />
            <mxPoint x="1590" y="590" as="targetPoint" />
          </mxGeometry>
        </mxCell>
        <mxCell id="SOC2u97oLlGBoNLmG89c-67" value="" style="endArrow=classic;html=1;entryX=0.5;entryY=1;entryDx=0;entryDy=0;exitX=0.5;exitY=0;exitDx=0;exitDy=0;" edge="1" parent="1" source="SOC2u97oLlGBoNLmG89c-56" target="SOC2u97oLlGBoNLmG89c-53">
          <mxGeometry width="50" height="50" relative="1" as="geometry">
            <mxPoint x="1540" y="640" as="sourcePoint" />
            <mxPoint x="1590" y="590" as="targetPoint" />
          </mxGeometry>
        </mxCell>
        <mxCell id="SOC2u97oLlGBoNLmG89c-68" value="" style="endArrow=classic;html=1;entryX=0.594;entryY=1.067;entryDx=0;entryDy=0;entryPerimeter=0;" edge="1" parent="1" target="SOC2u97oLlGBoNLmG89c-53">
          <mxGeometry width="50" height="50" relative="1" as="geometry">
            <mxPoint x="1290" y="610" as="sourcePoint" />
            <mxPoint x="1590" y="590" as="targetPoint" />
          </mxGeometry>
        </mxCell>
        <mxCell id="SOC2u97oLlGBoNLmG89c-69" value="" style="endArrow=classic;html=1;entryX=0.5;entryY=1;entryDx=0;entryDy=0;" edge="1" parent="1" target="SOC2u97oLlGBoNLmG89c-50">
          <mxGeometry width="50" height="50" relative="1" as="geometry">
            <mxPoint x="1790" y="620" as="sourcePoint" />
            <mxPoint x="1590" y="590" as="targetPoint" />
          </mxGeometry>
        </mxCell>
        <mxCell id="SOC2u97oLlGBoNLmG89c-70" value="" style="endArrow=classic;html=1;entryX=0.5;entryY=1;entryDx=0;entryDy=0;exitX=0.5;exitY=0;exitDx=0;exitDy=0;exitPerimeter=0;" edge="1" parent="1" source="SOC2u97oLlGBoNLmG89c-57" target="SOC2u97oLlGBoNLmG89c-54">
          <mxGeometry width="50" height="50" relative="1" as="geometry">
            <mxPoint x="1540" y="750" as="sourcePoint" />
            <mxPoint x="1590" y="700" as="targetPoint" />
          </mxGeometry>
        </mxCell>
        <mxCell id="SOC2u97oLlGBoNLmG89c-71" value="" style="endArrow=classic;html=1;entryX=0.5;entryY=1;entryDx=0;entryDy=0;" edge="1" parent="1" source="SOC2u97oLlGBoNLmG89c-57" target="SOC2u97oLlGBoNLmG89c-56">
          <mxGeometry width="50" height="50" relative="1" as="geometry">
            <mxPoint x="1540" y="750" as="sourcePoint" />
            <mxPoint x="1590" y="700" as="targetPoint" />
          </mxGeometry>
        </mxCell>
        <mxCell id="SOC2u97oLlGBoNLmG89c-72" value="" style="endArrow=classic;html=1;entryX=0.5;entryY=1;entryDx=0;entryDy=0;exitX=0.5;exitY=0;exitDx=0;exitDy=0;exitPerimeter=0;" edge="1" parent="1" source="SOC2u97oLlGBoNLmG89c-57" target="SOC2u97oLlGBoNLmG89c-55">
          <mxGeometry width="50" height="50" relative="1" as="geometry">
            <mxPoint x="1540" y="750" as="sourcePoint" />
            <mxPoint x="1590" y="700" as="targetPoint" />
          </mxGeometry>
        </mxCell>
        <mxCell id="SOC2u97oLlGBoNLmG89c-83" value="" style="edgeStyle=orthogonalEdgeStyle;rounded=0;orthogonalLoop=1;jettySize=auto;html=1;" edge="1" parent="1" source="SOC2u97oLlGBoNLmG89c-84" target="SOC2u97oLlGBoNLmG89c-85">
          <mxGeometry relative="1" as="geometry" />
        </mxCell>
        <mxCell id="SOC2u97oLlGBoNLmG89c-84" value="&lt;font style=&quot;font-size: 28px&quot;&gt;416x416x3&lt;/font&gt;" style="whiteSpace=wrap;html=1;" vertex="1" parent="1">
          <mxGeometry x="70" y="1125" width="150" height="100" as="geometry" />
        </mxCell>
        <mxCell id="SOC2u97oLlGBoNLmG89c-85" value="&lt;font style=&quot;font-size: 28px&quot;&gt;DBL&lt;/font&gt;" style="whiteSpace=wrap;html=1;" vertex="1" parent="1">
          <mxGeometry x="260" y="1130" width="100" height="90" as="geometry" />
        </mxCell>
        <mxCell id="SOC2u97oLlGBoNLmG89c-86" value="&lt;font style=&quot;font-size: 28px&quot;&gt;res1&lt;/font&gt;" style="whiteSpace=wrap;html=1;" vertex="1" parent="1">
          <mxGeometry x="360" y="1130" width="100" height="90" as="geometry" />
        </mxCell>
        <mxCell id="SOC2u97oLlGBoNLmG89c-87" value="&lt;font style=&quot;font-size: 28px&quot;&gt;res2&lt;/font&gt;" style="whiteSpace=wrap;html=1;" vertex="1" parent="1">
          <mxGeometry x="460" y="1130" width="100" height="90" as="geometry" />
        </mxCell>
        <mxCell id="SOC2u97oLlGBoNLmG89c-88" value="" style="edgeStyle=orthogonalEdgeStyle;rounded=0;orthogonalLoop=1;jettySize=auto;html=1;fontSize=28;" edge="1" parent="1" source="SOC2u97oLlGBoNLmG89c-89" target="SOC2u97oLlGBoNLmG89c-91">
          <mxGeometry relative="1" as="geometry" />
        </mxCell>
        <mxCell id="SOC2u97oLlGBoNLmG89c-89" value="&lt;font style=&quot;font-size: 28px&quot;&gt;res8&lt;/font&gt;" style="whiteSpace=wrap;html=1;" vertex="1" parent="1">
          <mxGeometry x="560" y="1130" width="100" height="90" as="geometry" />
        </mxCell>
        <mxCell id="SOC2u97oLlGBoNLmG89c-90" value="" style="edgeStyle=orthogonalEdgeStyle;rounded=0;orthogonalLoop=1;jettySize=auto;html=1;fontSize=28;" edge="1" parent="1" source="SOC2u97oLlGBoNLmG89c-91" target="SOC2u97oLlGBoNLmG89c-92">
          <mxGeometry relative="1" as="geometry" />
        </mxCell>
        <mxCell id="SOC2u97oLlGBoNLmG89c-91" value="&lt;font style=&quot;font-size: 28px;&quot;&gt;res8&lt;/font&gt;" style="whiteSpace=wrap;html=1;fontSize=28;" vertex="1" parent="1">
          <mxGeometry x="730" y="1145" width="110" height="60" as="geometry" />
        </mxCell>
        <mxCell id="SOC2u97oLlGBoNLmG89c-94" value="" style="edgeStyle=orthogonalEdgeStyle;rounded=0;orthogonalLoop=1;jettySize=auto;html=1;fontSize=28;" edge="1" parent="1" source="SOC2u97oLlGBoNLmG89c-92" target="SOC2u97oLlGBoNLmG89c-93">
          <mxGeometry relative="1" as="geometry" />
        </mxCell>
        <mxCell id="SOC2u97oLlGBoNLmG89c-92" value="&lt;font style=&quot;font-size: 28px;&quot;&gt;res4&lt;/font&gt;" style="whiteSpace=wrap;html=1;fontSize=28;" vertex="1" parent="1">
          <mxGeometry x="920" y="1145" width="110" height="60" as="geometry" />
        </mxCell>
        <mxCell id="SOC2u97oLlGBoNLmG89c-93" value="&lt;font style=&quot;font-size: 28px;&quot;&gt;DBL&lt;/font&gt;" style="whiteSpace=wrap;html=1;fontSize=28;" vertex="1" parent="1">
          <mxGeometry x="1105" y="1145" width="65" height="60" as="geometry" />
        </mxCell>
        <mxCell id="SOC2u97oLlGBoNLmG89c-95" value="&lt;font style=&quot;font-size: 28px;&quot;&gt;DBL&lt;/font&gt;" style="whiteSpace=wrap;html=1;fontSize=28;" vertex="1" parent="1">
          <mxGeometry x="1115" y="1155" width="65" height="60" as="geometry" />
        </mxCell>
        <mxCell id="SOC2u97oLlGBoNLmG89c-96" value="&lt;font style=&quot;font-size: 28px;&quot;&gt;DBL&lt;/font&gt;" style="whiteSpace=wrap;html=1;fontSize=28;" vertex="1" parent="1">
          <mxGeometry x="1125" y="1165" width="65" height="60" as="geometry" />
        </mxCell>
        <mxCell id="SOC2u97oLlGBoNLmG89c-99" value="" style="edgeStyle=orthogonalEdgeStyle;rounded=0;orthogonalLoop=1;jettySize=auto;html=1;fontSize=28;" edge="1" parent="1" source="SOC2u97oLlGBoNLmG89c-97" target="SOC2u97oLlGBoNLmG89c-98">
          <mxGeometry relative="1" as="geometry" />
        </mxCell>
        <mxCell id="SOC2u97oLlGBoNLmG89c-97" value="&lt;font style=&quot;font-size: 28px;&quot;&gt;DBL&lt;/font&gt;" style="whiteSpace=wrap;html=1;fontSize=28;" vertex="1" parent="1">
          <mxGeometry x="1135" y="1175" width="65" height="60" as="geometry" />
        </mxCell>
        <mxCell id="SOC2u97oLlGBoNLmG89c-98" value="&lt;font style=&quot;font-size: 28px;&quot;&gt;DBL&lt;/font&gt;" style="whiteSpace=wrap;html=1;fontSize=28;" vertex="1" parent="1">
          <mxGeometry x="1540" y="1175" width="65" height="60" as="geometry" />
        </mxCell>
        <mxCell id="SOC2u97oLlGBoNLmG89c-103" value="" style="edgeStyle=orthogonalEdgeStyle;rounded=0;orthogonalLoop=1;jettySize=auto;html=1;fontSize=28;" edge="1" parent="1" source="SOC2u97oLlGBoNLmG89c-101" target="SOC2u97oLlGBoNLmG89c-102">
          <mxGeometry relative="1" as="geometry" />
        </mxCell>
        <mxCell id="SOC2u97oLlGBoNLmG89c-101" value="&lt;font style=&quot;font-size: 28px;&quot;&gt;conv&lt;/font&gt;" style="whiteSpace=wrap;html=1;fontSize=28;" vertex="1" parent="1">
          <mxGeometry x="1605" y="1175" width="65" height="60" as="geometry" />
        </mxCell>
        <mxCell id="SOC2u97oLlGBoNLmG89c-102" value="&lt;font style=&quot;font-size: 28px;&quot;&gt;y1&lt;/font&gt;" style="whiteSpace=wrap;html=1;fontSize=28;" vertex="1" parent="1">
          <mxGeometry x="2010" y="1175" width="120" height="60" as="geometry" />
        </mxCell>
        <mxCell id="SOC2u97oLlGBoNLmG89c-104" value="&lt;font style=&quot;font-size: 28px;&quot;&gt;13x13x255&lt;/font&gt;" style="text;html=1;align=center;verticalAlign=middle;resizable=0;points=[];autosize=1;strokeColor=none;fontSize=28;" vertex="1" parent="1">
          <mxGeometry x="1995" y="1240" width="150" height="40" as="geometry" />
        </mxCell>
        <mxCell id="SOC2u97oLlGBoNLmG89c-105" value="" style="endArrow=classic;html=1;fontSize=28;" edge="1" parent="1">
          <mxGeometry width="50" height="50" relative="1" as="geometry">
            <mxPoint x="690" y="1180" as="sourcePoint" />
            <mxPoint x="1480" y="1620" as="targetPoint" />
            <Array as="points">
              <mxPoint x="690" y="1620" />
            </Array>
          </mxGeometry>
        </mxCell>
        <mxCell id="SOC2u97oLlGBoNLmG89c-106" value="" style="endArrow=classic;html=1;entryX=0.029;entryY=0.639;entryDx=0;entryDy=0;entryPerimeter=0;fontSize=28;" edge="1" parent="1" target="SOC2u97oLlGBoNLmG89c-112">
          <mxGeometry width="50" height="50" relative="1" as="geometry">
            <mxPoint x="880" y="1180" as="sourcePoint" />
            <mxPoint x="1310" y="1430" as="targetPoint" />
            <Array as="points">
              <mxPoint x="880" y="1430" />
            </Array>
          </mxGeometry>
        </mxCell>
        <mxCell id="SOC2u97oLlGBoNLmG89c-107" value="" style="endArrow=classic;html=1;fontSize=28;" edge="1" parent="1">
          <mxGeometry width="50" height="50" relative="1" as="geometry">
            <mxPoint x="1350" y="1200" as="sourcePoint" />
            <mxPoint x="1270" y="1330" as="targetPoint" />
            <Array as="points">
              <mxPoint x="1350" y="1290" />
              <mxPoint x="1200" y="1290" />
              <mxPoint x="1200" y="1330" />
            </Array>
          </mxGeometry>
        </mxCell>
        <mxCell id="SOC2u97oLlGBoNLmG89c-108" value="&lt;font style=&quot;font-size: 28px;&quot;&gt;DBL&lt;/font&gt;" style="whiteSpace=wrap;html=1;fontSize=28;" vertex="1" parent="1">
          <mxGeometry x="1267.5" y="1300" width="65" height="60" as="geometry" />
        </mxCell>
        <mxCell id="SOC2u97oLlGBoNLmG89c-113" value="" style="edgeStyle=orthogonalEdgeStyle;rounded=0;orthogonalLoop=1;jettySize=auto;html=1;entryX=0;entryY=0.5;entryDx=0;entryDy=0;fontSize=28;" edge="1" parent="1" source="SOC2u97oLlGBoNLmG89c-109" target="SOC2u97oLlGBoNLmG89c-112">
          <mxGeometry relative="1" as="geometry" />
        </mxCell>
        <mxCell id="SOC2u97oLlGBoNLmG89c-109" value="&lt;span style=&quot;font-size: 28px;&quot;&gt;上采样&lt;/span&gt;" style="whiteSpace=wrap;html=1;fontSize=28;" vertex="1" parent="1">
          <mxGeometry x="1332.5" y="1300" width="65" height="60" as="geometry" />
        </mxCell>
        <mxCell id="SOC2u97oLlGBoNLmG89c-115" value="" style="edgeStyle=orthogonalEdgeStyle;rounded=0;orthogonalLoop=1;jettySize=auto;html=1;fontSize=28;" edge="1" parent="1" source="SOC2u97oLlGBoNLmG89c-112">
          <mxGeometry relative="1" as="geometry">
            <mxPoint x="1635" y="1415" as="targetPoint" />
          </mxGeometry>
        </mxCell>
        <mxCell id="SOC2u97oLlGBoNLmG89c-112" value="&lt;font style=&quot;font-size: 28px;&quot;&gt;concat&lt;/font&gt;" style="triangle;whiteSpace=wrap;html=1;fontSize=28;" vertex="1" parent="1">
          <mxGeometry x="1480" y="1350" width="100" height="130" as="geometry" />
        </mxCell>
        <mxCell id="SOC2u97oLlGBoNLmG89c-116" value="&lt;font style=&quot;font-size: 28px;&quot;&gt;DBL&lt;/font&gt;" style="whiteSpace=wrap;html=1;fontSize=28;" vertex="1" parent="1">
          <mxGeometry x="1635" y="1380" width="65" height="60" as="geometry" />
        </mxCell>
        <mxCell id="SOC2u97oLlGBoNLmG89c-121" value="&lt;font style=&quot;font-size: 28px;&quot;&gt;DBL&lt;/font&gt;" style="whiteSpace=wrap;html=1;fontSize=28;" vertex="1" parent="1">
          <mxGeometry x="1650" y="1390" width="65" height="60" as="geometry" />
        </mxCell>
        <mxCell id="SOC2u97oLlGBoNLmG89c-122" value="&lt;font style=&quot;font-size: 28px;&quot;&gt;DBL&lt;/font&gt;" style="whiteSpace=wrap;html=1;fontSize=28;" vertex="1" parent="1">
          <mxGeometry x="1660" y="1400" width="65" height="60" as="geometry" />
        </mxCell>
        <mxCell id="SOC2u97oLlGBoNLmG89c-123" value="&lt;font style=&quot;font-size: 28px;&quot;&gt;DBL&lt;/font&gt;" style="whiteSpace=wrap;html=1;fontSize=28;" vertex="1" parent="1">
          <mxGeometry x="1670" y="1410" width="65" height="60" as="geometry" />
        </mxCell>
        <mxCell id="SOC2u97oLlGBoNLmG89c-126" value="" style="edgeStyle=orthogonalEdgeStyle;rounded=0;orthogonalLoop=1;jettySize=auto;html=1;fontSize=28;" edge="1" parent="1" source="SOC2u97oLlGBoNLmG89c-124" target="SOC2u97oLlGBoNLmG89c-125">
          <mxGeometry relative="1" as="geometry" />
        </mxCell>
        <mxCell id="SOC2u97oLlGBoNLmG89c-124" value="&lt;font style=&quot;font-size: 28px;&quot;&gt;DBL&lt;/font&gt;" style="whiteSpace=wrap;html=1;fontSize=28;" vertex="1" parent="1">
          <mxGeometry x="1680" y="1420" width="65" height="60" as="geometry" />
        </mxCell>
        <mxCell id="SOC2u97oLlGBoNLmG89c-125" value="&lt;font style=&quot;font-size: 28px;&quot;&gt;DBL&lt;/font&gt;" style="whiteSpace=wrap;html=1;fontSize=28;" vertex="1" parent="1">
          <mxGeometry x="1825" y="1420" width="65" height="60" as="geometry" />
        </mxCell>
        <mxCell id="SOC2u97oLlGBoNLmG89c-130" value="" style="edgeStyle=orthogonalEdgeStyle;rounded=0;orthogonalLoop=1;jettySize=auto;html=1;fontSize=28;" edge="1" parent="1" source="SOC2u97oLlGBoNLmG89c-127">
          <mxGeometry relative="1" as="geometry">
            <mxPoint x="2007.5" y="1450" as="targetPoint" />
          </mxGeometry>
        </mxCell>
        <mxCell id="SOC2u97oLlGBoNLmG89c-127" value="&lt;span style=&quot;font-size: 28px;&quot;&gt;conv&lt;/span&gt;" style="whiteSpace=wrap;html=1;fontSize=28;" vertex="1" parent="1">
          <mxGeometry x="1890" y="1420" width="65" height="60" as="geometry" />
        </mxCell>
        <mxCell id="SOC2u97oLlGBoNLmG89c-131" value="&lt;font style=&quot;font-size: 28px;&quot;&gt;y2&lt;/font&gt;" style="whiteSpace=wrap;html=1;fontSize=28;" vertex="1" parent="1">
          <mxGeometry x="2010" y="1420" width="120" height="60" as="geometry" />
        </mxCell>
        <mxCell id="SOC2u97oLlGBoNLmG89c-132" value="&lt;font style=&quot;font-size: 28px;&quot;&gt;26x26x255&lt;br style=&quot;font-size: 28px;&quot;&gt;&lt;/font&gt;" style="text;html=1;align=center;verticalAlign=middle;resizable=0;points=[];autosize=1;strokeColor=none;fontSize=28;" vertex="1" parent="1">
          <mxGeometry x="1995" y="1485" width="150" height="40" as="geometry" />
        </mxCell>
        <mxCell id="SOC2u97oLlGBoNLmG89c-133" value="&lt;font style=&quot;font-size: 28px;&quot;&gt;DBL&lt;/font&gt;" style="whiteSpace=wrap;html=1;fontSize=28;" vertex="1" parent="1">
          <mxGeometry x="1280" y="1515" width="65" height="60" as="geometry" />
        </mxCell>
        <mxCell id="SOC2u97oLlGBoNLmG89c-134" value="&lt;span style=&quot;font-size: 28px;&quot;&gt;上采样&lt;/span&gt;" style="whiteSpace=wrap;html=1;fontSize=28;" vertex="1" parent="1">
          <mxGeometry x="1345" y="1515" width="65" height="60" as="geometry" />
        </mxCell>
        <mxCell id="SOC2u97oLlGBoNLmG89c-135" value="&lt;font style=&quot;font-size: 28px;&quot;&gt;concat&lt;/font&gt;" style="triangle;whiteSpace=wrap;html=1;fontSize=28;" vertex="1" parent="1">
          <mxGeometry x="1480" y="1530" width="100" height="130" as="geometry" />
        </mxCell>
        <mxCell id="SOC2u97oLlGBoNLmG89c-136" value="&lt;font style=&quot;font-size: 28px;&quot;&gt;DBL*5&lt;br style=&quot;font-size: 28px;&quot;&gt;&lt;/font&gt;" style="text;html=1;align=center;verticalAlign=middle;resizable=0;points=[];autosize=1;strokeColor=none;fontSize=28;" vertex="1" parent="1">
          <mxGeometry x="1620" y="1340" width="100" height="40" as="geometry" />
        </mxCell>
        <mxCell id="SOC2u97oLlGBoNLmG89c-137" value="&lt;font style=&quot;font-size: 28px;&quot;&gt;DBL&lt;/font&gt;" style="whiteSpace=wrap;html=1;fontSize=28;" vertex="1" parent="1">
          <mxGeometry x="1145" y="1185" width="65" height="60" as="geometry" />
        </mxCell>
        <mxCell id="SOC2u97oLlGBoNLmG89c-138" value="&lt;font style=&quot;font-size: 28px;&quot;&gt;DBL*5&lt;br style=&quot;font-size: 28px;&quot;&gt;&lt;/font&gt;" style="text;html=1;align=center;verticalAlign=middle;resizable=0;points=[];autosize=1;strokeColor=none;fontSize=28;" vertex="1" parent="1">
          <mxGeometry x="1110" y="1250" width="100" height="40" as="geometry" />
        </mxCell>
        <mxCell id="SOC2u97oLlGBoNLmG89c-139" value="" style="endArrow=classic;html=1;fontSize=28;" edge="1" parent="1">
          <mxGeometry width="50" height="50" relative="1" as="geometry">
            <mxPoint x="1780" y="1450" as="sourcePoint" />
            <mxPoint x="1280" y="1550" as="targetPoint" />
            <Array as="points">
              <mxPoint x="1780" y="1500" />
              <mxPoint x="1220" y="1500" />
              <mxPoint x="1220" y="1550" />
            </Array>
          </mxGeometry>
        </mxCell>
        <mxCell id="SOC2u97oLlGBoNLmG89c-141" value="" style="endArrow=classic;html=1;exitX=1;exitY=0.5;exitDx=0;exitDy=0;entryX=-0.019;entryY=0.123;entryDx=0;entryDy=0;entryPerimeter=0;fontSize=28;" edge="1" parent="1" source="SOC2u97oLlGBoNLmG89c-134" target="SOC2u97oLlGBoNLmG89c-135">
          <mxGeometry width="50" height="50" relative="1" as="geometry">
            <mxPoint x="1390" y="1340" as="sourcePoint" />
            <mxPoint x="1440" y="1290" as="targetPoint" />
          </mxGeometry>
        </mxCell>
        <mxCell id="SOC2u97oLlGBoNLmG89c-142" value="" style="edgeStyle=orthogonalEdgeStyle;rounded=0;orthogonalLoop=1;jettySize=auto;html=1;fontSize=28;" edge="1" parent="1">
          <mxGeometry relative="1" as="geometry">
            <mxPoint x="1570" y="1595" as="sourcePoint" />
            <mxPoint x="1635" y="1595" as="targetPoint" />
          </mxGeometry>
        </mxCell>
        <mxCell id="SOC2u97oLlGBoNLmG89c-143" value="&lt;font style=&quot;font-size: 28px;&quot;&gt;DBL&lt;/font&gt;" style="whiteSpace=wrap;html=1;fontSize=28;" vertex="1" parent="1">
          <mxGeometry x="1635" y="1560" width="65" height="60" as="geometry" />
        </mxCell>
        <mxCell id="SOC2u97oLlGBoNLmG89c-144" value="&lt;font style=&quot;font-size: 28px;&quot;&gt;DBL&lt;/font&gt;" style="whiteSpace=wrap;html=1;fontSize=28;" vertex="1" parent="1">
          <mxGeometry x="1650" y="1570" width="65" height="60" as="geometry" />
        </mxCell>
        <mxCell id="SOC2u97oLlGBoNLmG89c-145" value="&lt;font style=&quot;font-size: 28px;&quot;&gt;DBL&lt;/font&gt;" style="whiteSpace=wrap;html=1;fontSize=28;" vertex="1" parent="1">
          <mxGeometry x="1660" y="1580" width="65" height="60" as="geometry" />
        </mxCell>
        <mxCell id="SOC2u97oLlGBoNLmG89c-146" value="&lt;font style=&quot;font-size: 28px;&quot;&gt;DBL&lt;/font&gt;" style="whiteSpace=wrap;html=1;fontSize=28;" vertex="1" parent="1">
          <mxGeometry x="1670" y="1590" width="65" height="60" as="geometry" />
        </mxCell>
        <mxCell id="SOC2u97oLlGBoNLmG89c-147" value="&lt;font style=&quot;font-size: 28px;&quot;&gt;DBL*5&lt;br style=&quot;font-size: 28px;&quot;&gt;&lt;/font&gt;" style="text;html=1;align=center;verticalAlign=middle;resizable=0;points=[];autosize=1;strokeColor=none;fontSize=28;" vertex="1" parent="1">
          <mxGeometry x="1620" y="1520" width="100" height="40" as="geometry" />
        </mxCell>
        <mxCell id="SOC2u97oLlGBoNLmG89c-148" value="&lt;font style=&quot;font-size: 28px;&quot;&gt;DBL*5&lt;br style=&quot;font-size: 28px;&quot;&gt;&lt;/font&gt;" style="text;html=1;align=center;verticalAlign=middle;resizable=0;points=[];autosize=1;strokeColor=none;fontSize=28;" vertex="1" parent="1">
          <mxGeometry x="1635" y="1650" width="100" height="40" as="geometry" />
        </mxCell>
        <mxCell id="SOC2u97oLlGBoNLmG89c-149" value="&lt;font style=&quot;font-size: 28px;&quot;&gt;DBL&lt;/font&gt;" style="whiteSpace=wrap;html=1;fontSize=28;" vertex="1" parent="1">
          <mxGeometry x="1840" y="1590" width="65" height="60" as="geometry" />
        </mxCell>
        <mxCell id="SOC2u97oLlGBoNLmG89c-150" value="" style="edgeStyle=orthogonalEdgeStyle;rounded=0;orthogonalLoop=1;jettySize=auto;html=1;fontSize=28;" edge="1" parent="1" source="SOC2u97oLlGBoNLmG89c-151">
          <mxGeometry relative="1" as="geometry">
            <mxPoint x="2022.5" y="1620" as="targetPoint" />
          </mxGeometry>
        </mxCell>
        <mxCell id="SOC2u97oLlGBoNLmG89c-151" value="&lt;span style=&quot;font-size: 28px;&quot;&gt;conv&lt;/span&gt;" style="whiteSpace=wrap;html=1;fontSize=28;" vertex="1" parent="1">
          <mxGeometry x="1905" y="1590" width="65" height="60" as="geometry" />
        </mxCell>
        <mxCell id="SOC2u97oLlGBoNLmG89c-152" value="&lt;font style=&quot;font-size: 28px;&quot;&gt;y3&lt;/font&gt;" style="whiteSpace=wrap;html=1;fontSize=28;" vertex="1" parent="1">
          <mxGeometry x="2025" y="1590" width="120" height="60" as="geometry" />
        </mxCell>
        <mxCell id="SOC2u97oLlGBoNLmG89c-153" value="&lt;font style=&quot;font-size: 28px;&quot;&gt;52x52x255&lt;br style=&quot;font-size: 28px;&quot;&gt;&lt;/font&gt;" style="text;html=1;align=center;verticalAlign=middle;resizable=0;points=[];autosize=1;strokeColor=none;fontSize=28;" vertex="1" parent="1">
          <mxGeometry x="2010" y="1655" width="150" height="40" as="geometry" />
        </mxCell>
        <mxCell id="SOC2u97oLlGBoNLmG89c-154" value="" style="endArrow=classic;html=1;exitX=1;exitY=0.5;exitDx=0;exitDy=0;entryX=0;entryY=0.5;entryDx=0;entryDy=0;fontSize=28;" edge="1" parent="1" source="SOC2u97oLlGBoNLmG89c-146" target="SOC2u97oLlGBoNLmG89c-149">
          <mxGeometry width="50" height="50" relative="1" as="geometry">
            <mxPoint x="1390" y="1340" as="sourcePoint" />
            <mxPoint x="1440" y="1290" as="targetPoint" />
          </mxGeometry>
        </mxCell>
        <mxCell id="SOC2u97oLlGBoNLmG89c-155" value="&lt;font style=&quot;font-size: 42px&quot;&gt;YOLO_v3_Structure&lt;/font&gt;" style="text;html=1;align=center;verticalAlign=middle;resizable=0;points=[];autosize=1;strokeColor=none;" vertex="1" parent="1">
          <mxGeometry x="90" y="1380" width="390" height="30" as="geometry" />
        </mxCell>
      </root>
    </mxGraphModel>
  </diagram>
</mxfile>
